<?xml version="1.0" standalone="no"?>
<!DOCTYPE svg PUBLIC "-//W3C//DTD SVG 20010904//EN"
 "http://www.w3.org/TR/2001/REC-SVG-20010904/DTD/svg10.dtd">
<svg version="1.0" xmlns="http://www.w3.org/2000/svg"
 width="410.000000pt" height="253.000000pt" viewBox="0 0 410.000000 253.000000"
 preserveAspectRatio="xMidYMid meet">
<metadata>
Created by potrace 1.16, written by Peter Selinger 2001-2019
</metadata>
<g transform="translate(0.000000,253.000000) scale(0.100000,-0.100000)"
fill="#35363b" stroke="none">
<path d="M0 1260 l0 -1260 2050 0 2050 0 0 1260 0 1260 -2050 0 -2050 0 0
-1260z m2350 245 l0 -314 158 -3 157 -3 3 -157 3 -158 69 0 70 0 0 -75 0 -75
35 0 c33 0 35 -2 35 -35 0 -33 -2 -35 -34 -35 -32 0 -35 3 -38 33 l-3 32 -72
3 -72 3 -3 72 -3 72 -152 3 -153 3 0 -161 0 -160 -320 0 -320 0 0 160 0 160
-155 0 -155 0 0 315 0 315 -75 0 -75 0 0 75 0 75 -35 0 c-34 0 -35 1 -35 40 0
39 1 40 34 40 33 0 35 -2 38 -37 l3 -38 73 -3 72 -3 0 -69 0 -70 155 0 155 0
0 155 0 155 320 0 320 0 0 -315z"/>
<path d="M1720 1345 l0 -155 155 0 155 0 0 -160 0 -160 155 0 155 0 0 160 0
160 -155 0 -155 0 0 155 0 155 -155 0 -155 0 0 -155z"/>
</g>
</svg>
